<?xml version="1.0" encoding="UTF-8"?>
<svg id="Layer_2" data-name="Layer 2" xmlns="http://www.w3.org/2000/svg" xmlns:xlink="http://www.w3.org/1999/xlink" viewBox="0 0 50.08 47.55">
  <defs>
    <style>
      .cls-1 {
        fill: url(#linear-gradient);
      }

      .cls-1, .cls-2 {
        stroke-width: 0px;
      }

      .cls-2 {
        fill: url(#linear-gradient-2);
      }
    </style>
    <linearGradient id="linear-gradient" x1="0" y1="28.87" x2="22.71" y2="28.87" gradientUnits="userSpaceOnUse">
      <stop offset="0" stop-color="#2bb67a"/>
      <stop offset=".71" stop-color="#36789c"/>
      <stop offset="1" stop-color="#3b5dab"/>
    </linearGradient>
    <linearGradient id="linear-gradient-2" x1="29.12" y1="18.2" x2="50.08" y2="18.2" xlink:href="#linear-gradient"/>
  </defs>
  <g id="Layer_1-2" data-name="Layer 1">
    <g>
      <path class="cls-1" d="M0,47.55V10.68h4.66l.49,5.43v31.44H0ZM12.45,36.88c-1.97,0-3.56-.45-4.77-1.36s-1.89-2.17-2.05-3.78h-2.23l1.75-7.33c0,2.65.52,4.67,1.56,6.04s2.58,2.06,4.6,2.06,3.64-.74,4.71-2.21,1.6-3.65,1.6-6.53c0-3.04-.53-5.34-1.6-6.89s-2.64-2.33-4.71-2.33-3.55.69-4.6,2.06-1.56,3.39-1.56,6.04l-1.75-7.33h1.99c.23-1.62.96-2.88,2.2-3.78s2.86-1.36,4.86-1.36c3.38,0,5.94,1.15,7.67,3.45s2.6,5.68,2.6,10.14-.87,7.56-2.6,9.78-4.29,3.32-7.67,3.32Z"/>
      <path class="cls-2" d="M29.12,36.39V0h5.14v36.39h-5.14ZM44.93,36.39v-16.74c0-1.63-.4-2.89-1.21-3.77s-1.94-1.32-3.4-1.32c-4.04,0-6.07,2.46-6.07,7.38l-1.5-6.6h1.99c.15-1.73.78-3.02,1.89-3.87s2.75-1.27,4.9-1.27c2.72,0,4.82.82,6.31,2.47s2.23,3.98,2.23,6.99v16.74h-5.14Z"/>
    </g>
  </g>
</svg>